<?xml version="1.0" standalone="no"?>
<!DOCTYPE svg PUBLIC "-//W3C//DTD SVG 20010904//EN"
 "http://www.w3.org/TR/2001/REC-SVG-20010904/DTD/svg10.dtd">
<svg version="1.0" xmlns="http://www.w3.org/2000/svg"
 width="300.000000pt" height="300.000000pt" viewBox="0 0 300.000000 300.000000"
 preserveAspectRatio="xMidYMid meet">
  <defs>
    <linearGradient id="grad1" x1="0%" x2="100%" y1="0%" y2="0%">
      <stop offset="0%" stop-color="#8642df" />
      <stop offset="100%" stop-color="#f24554" />
    </linearGradient>
  </defs>
<g transform="translate(0.000000,300.000000) scale(0.100000,-0.100000)"
fill="url(#grad1)" stroke="none">
<path d="M528 2973 c-9 -16 -23 -51 -31 -79 -8 -28 -25 -72 -37 -98 -29 -65
-53 -215 -47 -301 4 -49 1 -74 -8 -85 -7 -8 -29 -46 -49 -85 -49 -95 -50 -161
-5 -246 18 -33 42 -69 54 -82 25 -25 36 -76 41 -191 3 -73 14 -122 14 -63 0
14 5 29 10 32 6 3 10 15 10 26 0 11 -5 17 -10 14 -6 -3 -10 4 -10 17 0 13 -3
34 -5 48 l-6 25 12 -25 c47 -100 56 -158 39 -232 -7 -29 -17 -58 -22 -65 -6
-7 -5 -14 3 -19 7 -4 10 -3 7 2 -3 5 4 17 15 28 11 10 18 15 15 10 -20 -44
-35 -72 -48 -88 -41 -53 -83 -96 -93 -96 -6 0 5 17 24 38 70 76 81 90 70 96
-6 4 -19 -11 -30 -33 -12 -22 -29 -46 -38 -53 -10 -7 -26 -23 -36 -34 -17 -21
-17 -21 25 -21 40 0 47 5 110 71 37 38 65 72 63 74 -2 3 4 17 13 31 10 14 24
46 32 71 9 29 15 39 18 27 6 -29 -6 -63 -34 -96 -14 -17 -21 -31 -16 -31 5 0
21 17 35 38 26 39 25 36 44 322 6 94 5 97 -26 151 -17 31 -31 70 -31 87 0 18
-4 32 -9 32 -9 0 -7 -45 5 -114 5 -28 3 -37 -5 -32 -15 10 -15 7 16 -76 17
-46 26 -92 26 -124 -2 -58 -29 -154 -50 -170 -7 -7 -11 -20 -7 -30 4 -14 3
-16 -4 -5 -8 11 -10 11 -14 0 -2 -7 -5 23 -5 66 -1 96 -4 115 -15 115 -5 0 -7
4 -3 9 3 5 0 13 -6 17 -13 7 -9 -30 7 -70 5 -14 4 -17 -4 -12 -7 4 -12 13 -12
20 0 8 -9 33 -19 57 -11 24 -25 76 -32 114 -7 39 -16 72 -20 75 -5 3 -4 23 1
45 12 53 12 88 0 80 -13 -8 -5 87 10 115 10 18 9 21 0 15 -10 -6 -11 -1 -6 21
4 21 4 25 -4 13 -18 -30 -44 -217 -33 -242 5 -12 7 -33 3 -47 -5 -21 -8 -18
-28 30 -44 106 -41 183 9 227 27 25 41 52 19 38 -5 -3 -10 1 -10 9 0 8 5 18
10 21 6 4 8 10 5 15 -3 5 0 15 7 22 32 35 110 206 88 193 -6 -3 -10 1 -10 10
0 9 3 14 8 12 4 -3 7 8 8 24 1 16 -2 29 -7 29 -4 0 -7 20 -6 45 3 63 -7 43
-27 -55 -26 -129 -27 -150 -7 -90 11 32 19 46 20 33 1 -29 -38 -133 -50 -133
-13 0 -11 14 3 28 7 7 8 12 1 12 -17 0 -4 95 29 215 17 61 33 115 37 120 3 6
6 16 7 24 3 14 37 56 64 77 8 7 11 16 7 21 -5 4 -17 -3 -28 -16 -10 -13 -19
-17 -19 -10 0 8 -6 5 -15 -7 -10 -11 -8 -2 5 23 22 47 24 53 12 53 -4 0 -15
-12 -24 -27z m-160 -885 c18 -44 3 -32 -18 15 -11 23 -19 51 -19 62 0 13 5 7
13 -15 7 -19 18 -47 24 -62z m268 -53 c7 -19 14 -60 13 -92 l-1 -58 -13 71
c-7 38 -16 80 -19 92 -12 35 4 25 20 -13z"/>
<path d="M1394 2979 c43 -34 47 -58 18 -99 l-26 -35 32 33 c26 27 38 32 76 32
25 0 46 -4 46 -9 0 -5 17 -3 38 4 46 16 92 20 114 10 23 -9 86 23 107 55 l16
24 -32 -24 c-18 -13 -33 -27 -33 -32 0 -4 -5 -8 -10 -8 -6 0 -3 11 7 24 10 13
21 22 26 19 4 -2 7 1 7 6 0 18 -19 12 -47 -14 -33 -30 -41 -26 -18 9 24 36 1
33 -25 -4 -28 -39 -40 -38 -41 3 -1 21 -3 25 -6 11 -2 -12 -14 -30 -25 -40
-21 -19 -21 -19 -14 0 6 17 5 17 -10 5 -16 -13 -17 -11 -10 16 l7 30 -22 -33
c-23 -36 -38 -37 -19 -2 6 12 10 24 7 26 -2 3 -11 -10 -19 -27 -15 -29 -17
-30 -27 -13 -11 18 -11 18 -26 -1 -14 -17 -17 -18 -25 -5 -5 8 -14 15 -19 15
-5 0 -19 10 -31 23 -11 12 -26 22 -32 22 -6 0 2 -10 16 -21z"/>
<path d="M2424 2939 c33 -35 69 -73 80 -84 20 -20 20 -20 5 0 -38 53 -85 106
-113 126 -20 14 -9 -1 28 -42z"/>
<path d="M2460 2996 c0 -1 14 -17 30 -34 43 -45 37 -63 -7 -21 l-37 34 34 -41
c19 -22 45 -54 58 -70 l23 -29 -22 33 c-11 18 -19 36 -16 39 6 5 61 -76 91
-134 20 -40 30 -44 14 -5 -32 71 -141 232 -158 232 -6 0 -10 -2 -10 -4z"/>
<path d="M2575 2969 c15 -19 32 -33 36 -32 5 2 6 -4 3 -12 -4 -8 -1 -15 5 -15
6 0 11 -6 11 -14 0 -8 6 -21 13 -28 17 -17 64 -116 71 -151 3 -15 8 -39 11
-53 4 -18 2 -24 -6 -18 -8 5 -9 3 -4 -6 4 -7 9 -25 10 -39 1 -14 3 -34 3 -43
1 -10 7 -18 13 -18 7 0 8 27 4 83 -7 91 -30 187 -45 187 -5 0 -6 7 -3 17 4 11
3 14 -5 9 -7 -4 -23 16 -42 54 -17 33 -34 60 -38 60 -4 0 -12 10 -17 22 -6 13
-19 25 -29 27 -17 3 -15 -2 9 -30z"/>
<path d="M2730 2980 c8 -15 8 -18 -3 -15 -8 4 -13 -2 -13 -14 0 -16 4 -18 20
-9 15 8 18 7 13 -5 -3 -8 3 -28 13 -44 10 -17 23 -56 30 -87 6 -31 15 -56 20
-56 4 0 8 -26 8 -57 0 -57 0 -57 -12 -25 -6 18 -15 30 -18 26 -8 -7 -23 25
-32 66 -3 14 -12 34 -20 45 -11 15 -10 4 5 -39 10 -32 23 -64 28 -70 13 -17
22 -105 13 -134 -5 -21 -8 -11 -13 43 -5 65 -6 62 -7 -38 -1 -60 -6 -127 -11
-150 -5 -23 -19 -89 -31 -147 -23 -107 -40 -148 -40 -95 0 26 -1 27 -13 11
-13 -17 -14 -17 -30 -1 -9 9 -17 22 -17 28 0 7 -5 4 -11 -5 -5 -10 -15 -18
-22 -18 -15 -1 -49 -30 -63 -55 -6 -10 -17 -21 -25 -24 -12 -3 -11 -1 1 14 14
17 14 17 -7 4 -14 -8 -18 -16 -11 -20 7 -4 6 -9 -3 -13 -8 -3 -3 -3 11 0 24 5
24 4 6 -10 -11 -9 -35 -16 -54 -16 -18 0 -31 -4 -28 -9 3 -5 0 -21 -8 -36 -9
-18 -16 -22 -20 -13 -3 7 -2 0 1 -16 5 -26 4 -28 -9 -15 -9 8 -15 16 -13 19 2
3 -3 14 -11 25 -14 18 -14 18 -14 -3 0 -13 9 -40 20 -62 13 -25 20 -57 19 -87
l-1 -48 -9 44 c-5 25 -16 66 -24 92 -9 26 -18 85 -21 131 -3 46 -6 99 -7 118
-1 19 -6 41 -11 49 -7 11 -5 13 7 8 17 -6 -27 62 -84 133 -20 24 -26 37 -18
45 7 7 14 5 23 -7 7 -10 18 -18 24 -18 6 0 12 -5 14 -12 5 -15 45 -21 53 -8 4
6 -16 21 -43 33 -27 13 -64 36 -81 53 -17 16 -34 27 -38 24 -8 -6 -31 57 -32
87 -1 12 -6 25 -12 29 -8 4 -9 -1 -4 -16 4 -12 7 -50 6 -84 0 -48 5 -75 28
-123 16 -33 35 -65 43 -70 16 -9 59 -89 52 -96 -3 -2 2 -7 11 -10 13 -6 13 -2
-1 31 -9 20 -16 45 -16 56 1 10 -2 16 -5 12 -8 -8 -71 77 -89 119 -8 19 -14
45 -13 57 0 22 1 22 9 3 5 -11 9 -16 9 -10 1 5 11 -10 24 -33 13 -24 43 -66
67 -94 l44 -51 3 -126 c2 -95 9 -152 29 -230 27 -108 27 -125 -5 -256 l-10
-40 19 25 c11 14 20 29 20 34 0 4 14 30 32 57 22 34 34 46 40 37 5 -9 8 -10 8
-1 0 6 -4 14 -8 17 -12 7 -13 166 -1 166 5 0 9 6 9 14 0 8 19 24 43 35 47 24
77 48 93 76 28 50 87 45 110 -10 20 -49 17 -90 -12 -170 -14 -38 -34 -97 -44
-130 -10 -33 -19 -56 -19 -51 -1 6 -15 -5 -32 -22 -17 -18 -35 -32 -39 -32 -5
0 -13 -14 -19 -30 -5 -16 -8 -30 -5 -30 7 0 66 68 82 94 12 20 13 20 6 -4 -6
-25 -66 -148 -111 -230 l-26 -45 27 30 c29 33 117 207 136 270 7 22 26 78 43
125 17 47 32 110 34 140 2 30 15 80 27 110 38 89 56 162 57 236 1 50 3 62 9
44 l8 -25 1 26 c1 14 8 50 17 80 9 30 20 74 25 99 7 38 8 35 4 -25 -2 -38 -7
-86 -10 -105 l-6 -35 17 30 c14 24 17 50 14 125 -3 115 -3 114 9 170 8 36 9
22 7 -75 -3 -81 -1 -107 4 -80 15 69 11 240 -7 320 -15 72 -17 75 -45 75 -15
0 -28 -1 -28 -3 0 -2 11 -31 25 -65 19 -46 25 -79 24 -129 l-1 -68 -23 92
c-25 99 -60 173 -82 173 -11 0 -11 -5 -3 -20z"/>
<path d="M1821 2978 c-1 -9 -20 -33 -43 -53 l-43 -36 50 19 c39 15 70 19 140
17 50 -2 99 -5 110 -8 11 -3 31 -6 44 -6 16 -1 21 -5 17 -16 -3 -9 0 -15 10
-15 8 0 13 4 10 9 -4 5 0 12 6 14 7 3 -2 8 -19 12 -18 4 -30 11 -27 16 5 9
-14 13 -54 9 -21 -1 -23 2 -17 22 3 12 3 18 -2 13 -4 -6 -19 -12 -33 -12 -14
-1 -40 -5 -57 -8 -27 -5 -32 -3 -27 10 8 20 -16 16 -33 -5 -10 -13 -13 -11
-22 10 -6 16 -10 19 -10 8z"/>
<path d="M2244 2975 c-4 -8 -11 -15 -18 -15 -6 0 -17 -9 -24 -20 -7 -12 -18
-18 -24 -14 -7 4 -8 3 -4 -5 8 -12 15 -10 64 27 32 24 41 42 22 42 -6 0 -13
-7 -16 -15z"/>
<path d="M2276 2936 c-8 -13 -29 -27 -46 -31 -16 -4 -30 -11 -30 -16 0 -12 1
-12 65 12 43 16 53 24 46 33 -6 7 -8 16 -4 19 3 4 2 7 -4 7 -6 0 -18 -11 -27
-24z"/>
<path d="M2380 2955 c0 -3 8 -14 18 -25 90 -102 103 -121 97 -144 -5 -17 -4
-18 4 -6 6 8 11 10 11 4 0 -5 7 -19 15 -30 9 -10 4 6 -11 36 -39 81 -134 197
-134 165z"/>
<path d="M1303 2930 c9 -6 17 -18 17 -25 0 -10 10 -15 29 -15 31 0 84 23 75
33 -3 3 -15 1 -25 -6 -14 -9 -26 -9 -46 -1 -16 7 -37 15 -48 19 -18 6 -18 5
-2 -5z"/>
<path d="M1253 2908 c5 -14 1 -18 -16 -19 -21 -1 -20 -1 3 -8 24 -7 24 -7 -9
-14 -18 -4 -38 -4 -44 0 -6 4 -32 6 -57 4 -25 -1 -58 2 -73 8 -15 6 -27 7 -27
2 0 -10 49 -21 96 -21 45 0 87 -17 78 -32 -4 -7 -3 -8 5 -4 6 4 9 11 6 16 -3
5 3 9 12 9 10 1 42 4 71 9 l53 7 -33 14 c-18 8 -42 21 -52 30 -18 15 -19 15
-13 -1z"/>
<path d="M1998 2893 c6 -2 10 -9 7 -14 -4 -5 2 -6 11 -2 12 4 15 3 10 -5 -4
-8 -2 -10 8 -6 8 3 19 -3 26 -15 6 -12 16 -21 23 -21 7 0 6 4 -3 10 -13 9 -13
10 0 10 8 0 -3 11 -25 25 -22 13 -47 24 -55 24 -10 0 -11 -2 -2 -6z"/>
<path d="M2120 2837 c17 -9 26 -22 28 -45 2 -17 7 -32 12 -32 4 0 6 10 3 23
-4 19 -2 18 15 -7 11 -16 19 -38 16 -49 -2 -12 4 -29 12 -38 9 -10 13 -22 10
-28 -4 -5 -1 -13 5 -17 8 -5 9 -3 4 6 -6 9 -4 11 5 5 10 -6 9 -11 -5 -21 -16
-12 -16 -14 -2 -20 9 -3 22 -2 29 2 7 4 10 4 6 -1 -6 -7 24 -30 92 -70 8 -5
-19 28 -61 73 -42 44 -79 90 -82 101 -6 25 9 28 17 4 7 -20 136 -158 136 -146
0 4 5 1 11 -7 6 -8 9 -10 7 -5 -2 6 -28 48 -59 95 -55 83 -129 162 -129 139 0
-7 -3 -9 -7 -5 -5 4 1 14 11 22 19 13 18 14 -15 15 l-34 1 30 8 c25 6 21 8
-25 9 -50 1 -53 0 -30 -12z"/>
<path d="M2134 2716 c-8 -45 1 -92 21 -113 9 -9 14 -22 11 -30 -7 -17 33 -54
51 -48 7 2 39 -7 72 -21 77 -31 91 -30 26 2 -27 14 -40 23 -27 20 12 -2 20 0
17 4 -3 5 -27 7 -53 5 -32 -2 -52 2 -64 12 -17 15 -17 17 0 30 9 8 12 12 5 9
-15 -8 -53 55 -53 88 0 15 4 25 9 22 5 -4 8 5 6 19 -4 40 -13 40 -21 1z"/>
<path d="M765 2663 c-4 -16 -14 -52 -24 -80 -10 -29 -15 -50 -11 -48 14 9 56
155 45 155 -2 0 -7 -12 -10 -27z"/>
<path d="M2285 2470 c9 -15 94 -54 102 -47 3 4 -1 7 -9 7 -9 0 -21 6 -27 14
-14 16 -75 40 -66 26z"/>
<path d="M889 2418 c-7 -24 -8 -65 0 -90 8 -30 9 -27 10 30 1 34 -1 62 -4 62
-3 0 -5 -1 -6 -2z"/>
<path d="M1195 2332 c1 -23 -1 -45 -6 -47 -18 -12 -2 -95 34 -177 11 -27 24
-48 27 -48 4 0 -3 21 -16 48 -27 55 -30 87 -9 96 15 5 38 -30 29 -45 -2 -4 5
-14 16 -24 12 -10 20 -13 20 -7 0 7 -4 12 -10 12 -5 0 -9 3 -8 8 1 4 -5 23
-13 42 -9 19 -21 61 -28 93 -7 31 -16 55 -21 52 -5 -3 -11 5 -13 17 -3 13 -3
4 -2 -20z"/>
<path d="M638 2298 c0 -13 -2 -35 -3 -49 -2 -33 -12 -49 -28 -45 -7 1 -9 1 -4
-1 4 -3 7 -13 7 -23 0 -26 16 -34 25 -12 9 24 19 152 11 152 -3 0 -7 -10 -8
-22z"/>
<path d="M700 2163 c-8 -3 -22 -7 -30 -10 -8 -4 -19 -7 -25 -7 -5 -1 -11 -11
-13 -23 -3 -17 2 -23 16 -23 11 0 47 -9 80 -19 80 -26 182 -38 182 -22 0 7 -5
9 -11 5 -6 -3 -15 0 -20 7 -6 10 -9 11 -9 2 0 -7 -5 -13 -10 -13 -7 0 -7 6 0
20 12 23 74 25 65 2 -3 -8 0 -12 7 -10 7 3 19 -1 26 -9 7 -7 27 -13 43 -13 16
0 29 -4 29 -9 0 -5 8 -12 18 -15 10 -4 7 3 -10 18 -15 13 -24 27 -21 30 4 3
-1 6 -10 6 -10 0 -17 4 -17 8 0 9 -43 24 -122 41 -63 15 -68 14 -68 -9 0 -11
5 -20 10 -20 6 0 10 7 10 16 0 8 5 12 10 9 6 -4 7 -12 3 -18 -4 -8 -1 -7 9 1
20 16 31 2 15 -18 -16 -20 -31 -22 -64 -8 -15 7 -32 13 -38 14 -58 10 -75 18
-75 36 0 14 5 18 15 15 8 -4 17 -2 21 4 8 13 3 17 -16 12z"/>
<path d="M1704 2141 c11 -12 24 -20 30 -19 6 0 19 -2 29 -7 10 -4 21 -5 24 -1
4 3 -1 6 -10 6 -9 0 -17 5 -17 11 0 6 7 8 15 5 39 -16 47 -16 20 0 -16 10 -48
19 -70 21 -39 4 -39 4 -21 -16z"/>
<path d="M1610 2139 c-25 -5 -50 -7 -57 -5 -6 3 -13 0 -16 -7 -2 -6 -26 -12
-53 -13 -60 -2 -98 -19 -90 -40 3 -8 2 -13 -3 -10 -5 3 -11 -1 -14 -8 -7 -18
28 -13 52 7 34 30 44 27 11 -3 l-35 -32 30 7 c16 3 97 8 180 9 113 2 159 7
189 19 21 9 46 17 55 16 12 0 11 -2 -4 -9 -13 -5 7 -8 58 -8 95 -1 96 9 8 54
-53 27 -59 29 -42 10 l20 -22 -47 -4 c-26 -2 -83 -3 -127 -3 -53 1 -72 -2 -55
-7 14 -4 18 -8 10 -9 -8 -1 -37 7 -64 18 -39 14 -45 20 -30 25 21 6 89 0 108
-11 6 -3 2 3 -8 15 -11 12 -22 22 -25 21 -3 -1 -26 -5 -51 -10z m-25 -71 c-61
-11 -85 -7 -40 6 22 7 49 10 60 7 15 -4 9 -7 -20 -13z"/>
<path d="M1162 2096 c-1 -25 2 -47 6 -50 5 -3 9 17 11 45 1 27 -2 49 -6 49 -4
0 -9 -20 -11 -44z"/>
<path d="M2553 2069 c-24 -17 -43 -34 -43 -39 0 -15 33 -4 51 18 22 28 29 28
29 0 0 -31 23 -138 30 -138 3 0 13 18 23 40 17 40 22 104 11 134 -10 25 -55
18 -101 -15z m78 -64 c-12 -46 -23 6 -12 55 1 3 6 -2 11 -11 5 -9 6 -29 1 -44z"/>
<path d="M763 2010 c-31 -13 -43 -25 -43 -40 0 -17 5 -19 29 -15 24 4 30 1 35
-19 5 -20 12 -24 48 -24 l43 -1 -30 13 c-16 7 -38 22 -48 33 -12 14 -26 19
-44 15 -16 -3 -24 -1 -20 5 4 6 23 13 44 16 21 3 47 8 57 13 16 6 18 4 13 -15
-14 -55 33 -84 122 -75 42 5 65 3 76 -6 22 -18 20 7 -5 47 -14 23 -25 31 -37
27 -14 -4 -15 -4 -4 4 16 12 -3 27 -21 16 -7 -4 -8 -3 -4 4 4 7 1 12 -8 12 -9
0 -16 -3 -16 -8 0 -13 39 -42 56 -42 19 0 15 -31 -5 -38 -10 -3 -12 0 -7 14 6
16 5 17 -11 2 -31 -27 -68 -30 -97 -7 -14 11 -26 26 -26 34 0 19 27 26 34 9 3
-8 13 -13 23 -13 17 1 17 2 1 6 -21 5 -23 24 -6 41 21 21 -100 15 -149 -8z"/>
<path d="M1020 2012 c0 -7 4 -12 9 -12 6 0 22 -16 36 -34 l27 -35 -21 -83
c-11 -46 -24 -107 -30 -136 -6 -29 -22 -74 -36 -100 -19 -36 -25 -62 -25 -113
0 -58 4 -71 30 -107 17 -23 35 -42 42 -42 6 0 0 12 -14 28 -32 34 -48 65 -48
93 0 21 2 20 30 -11 16 -18 33 -30 37 -26 5 4 -4 18 -18 29 -55 46 -54 85 1
157 18 23 31 57 39 100 17 101 53 210 70 210 8 0 11 3 8 7 -4 3 -2 12 5 20 8
11 7 12 -6 7 -12 -5 -16 0 -17 22 0 17 -3 23 -6 14 -3 -8 -11 -18 -17 -22 -8
-6 -7 -8 1 -8 9 0 9 -8 1 -31 l-11 -31 -12 28 c-14 33 -75 94 -75 76z"/>
<path d="M1506 1995 c-37 -34 -32 -39 10 -10 20 14 44 25 53 24 9 -1 5 -6 -11
-12 -30 -12 -44 -36 -28 -49 5 -4 8 -5 5 -2 -6 9 40 44 57 44 10 0 13 -9 10
-29 -10 -67 92 -108 142 -58 13 13 25 28 27 35 2 7 13 9 26 6 21 -6 20 -8 -18
-36 -22 -16 -38 -32 -35 -35 3 -3 11 -1 18 5 7 6 15 10 18 11 3 0 13 3 23 7
10 3 20 4 23 1 4 -3 18 -1 32 4 32 12 65 3 42 -11 -11 -7 -2 -10 28 -10 50 0
102 23 102 46 0 10 -4 12 -12 7 -24 -15 -78 -31 -78 -23 0 5 6 11 13 13 6 3
-3 6 -21 6 -18 1 -56 14 -85 31 l-52 30 50 -5 c48 -4 48 -4 10 4 -45 10 -242
31 -290 31 -20 0 -42 -9 -59 -25z m157 -12 c4 -3 2 -12 -5 -20 -8 -10 -8 -17
0 -25 14 -14 62 -1 62 17 0 20 16 19 24 0 7 -20 -28 -55 -57 -55 -33 0 -67 28
-67 54 0 32 24 49 43 29z"/>
<path d="M2480 1989 c-10 -14 -22 -38 -26 -55 -3 -16 -13 -39 -21 -52 -12 -20
-12 -25 2 -44 22 -33 18 -77 -10 -114 -25 -32 -34 -74 -16 -74 5 0 12 12 15
26 4 16 12 24 21 21 7 -3 19 1 25 9 10 11 10 14 -1 14 -22 0 3 17 44 30 43 14
77 59 77 103 0 20 -5 27 -20 27 -28 0 -65 -39 -51 -53 8 -8 11 -8 11 1 0 7 4
12 9 12 5 0 0 -18 -10 -40 -11 -22 -24 -40 -30 -40 -6 0 -7 5 -3 12 4 7 3 8
-5 4 -6 -4 -9 -12 -6 -17 3 -5 -1 -6 -10 -3 -15 6 -15 8 -1 22 14 14 13 17 -2
28 -16 12 -15 13 6 14 12 0 22 4 22 9 0 4 -11 6 -25 3 -21 -4 -25 0 -25 18 0
20 4 22 32 16 31 -6 31 -6 13 10 -17 13 -17 15 -2 10 24 -8 22 21 -3 36 -23
15 -26 28 -6 28 8 0 17 7 20 15 3 9 22 23 41 31 19 8 35 16 35 19 0 2 -18 4
-41 2 -31 -1 -45 -8 -59 -28z"/>
<path d="M561 1994 c0 -6 6 -55 14 -110 8 -54 15 -105 15 -112 0 -7 5 -10 10
-7 6 4 7 11 4 17 -4 6 -8 43 -10 82 -2 39 -4 79 -4 89 -1 9 -5 15 -10 12 -5
-3 -11 5 -13 17 -2 13 -5 18 -6 12z"/>
<path d="M1488 1943 c-8 -10 -18 -26 -21 -36 -6 -15 -3 -16 12 -7 11 5 21 15
23 22 3 9 9 8 22 -5 10 -9 20 -17 24 -18 4 0 21 -3 37 -5 l30 -5 -30 19 c-16
10 -43 22 -58 26 -15 3 -25 11 -22 16 10 16 -1 11 -17 -7z"/>
<path d="M1309 1917 c-5 -51 36 -99 124 -141 39 -20 83 -44 97 -55 48 -39 170
-53 170 -21 0 6 -9 5 -21 -2 -17 -10 -23 -10 -26 0 -3 6 -16 12 -29 12 -13 0
-24 4 -24 9 0 5 -9 7 -19 4 -13 -3 -29 6 -50 28 -17 17 -31 28 -31 23 0 -5 -5
-2 -11 6 -8 11 -12 12 -15 3 -7 -16 -74 15 -74 34 0 7 -6 13 -14 13 -19 0 -46
39 -46 66 0 23 -29 42 -31 21z"/>
<path d="M1811 1846 c-18 -22 -129 -39 -178 -28 -24 6 -43 6 -43 2 0 -24 140
-28 193 -6 33 13 67 46 49 46 -5 0 -15 -6 -21 -14z"/>
<path d="M673 1620 c-5 -20 -18 -26 -26 -12 -2 4 -2 1 0 -7 2 -8 8 -44 13 -80
5 -36 18 -92 29 -124 11 -32 25 -86 31 -120 25 -139 71 -307 105 -381 20 -43
35 -79 33 -81 -2 -2 -66 -24 -143 -50 -139 -46 -233 -87 -310 -135 -63 -39
-87 -52 -193 -107 -144 -75 -225 -133 -209 -149 3 -3 40 17 81 46 42 28 81 48
86 45 6 -4 9 -1 8 5 -2 6 12 18 31 26 34 14 35 14 16 -6 -10 -11 -13 -20 -7
-20 6 0 12 4 14 8 8 19 78 63 90 56 7 -4 10 -4 6 1 -25 27 363 200 517 230 32
7 31 9 75 -85 12 -25 27 -57 35 -72 10 -20 10 -29 2 -35 -18 -13 -77 -32 -122
-39 -66 -10 -155 -32 -168 -41 -22 -16 -68 -33 -62 -23 3 6 -1 7 -9 4 -9 -3
-16 -11 -16 -17 0 -6 -3 -7 -6 -4 -4 4 -20 -5 -36 -18 -16 -14 -36 -25 -44
-25 -9 0 -12 -4 -9 -10 5 -9 -7 -14 -26 -12 -4 1 -17 -10 -29 -23 -13 -14 -29
-25 -37 -25 -7 0 -13 -3 -13 -7 0 -7 -57 -45 -70 -48 -10 -1 -185 -120 -188
-127 -2 -5 -8 -8 -13 -8 -6 0 -24 -14 -42 -30 -18 -17 -40 -33 -49 -36 -16 -5
-27 -54 -13 -54 3 0 38 27 79 60 41 33 76 60 79 60 3 0 40 24 83 53 44 29 86
56 95 59 10 4 48 29 85 55 139 99 269 160 372 174 55 8 128 29 184 54 13 5 20
2 25 -11 3 -11 17 -32 30 -47 35 -43 31 -96 -13 -167 -22 -36 -46 -63 -63 -68
-14 -6 -35 -18 -46 -27 -19 -16 -19 -16 7 -1 38 22 44 20 22 -6 -10 -13 -4 -9
14 7 19 17 51 53 73 81 32 42 39 59 39 97 l0 47 43 -24 c98 -55 288 -71 364
-31 18 9 41 17 52 18 11 0 17 5 14 11 -4 5 1 7 12 2 12 -4 27 1 44 18 26 24
74 55 121 78 14 7 46 27 71 45 26 18 51 33 57 33 5 0 15 7 22 15 7 8 22 15 34
15 11 0 50 25 86 55 35 30 73 55 85 54 11 0 15 -3 8 -5 -7 -3 -10 -11 -7 -19
3 -7 0 -16 -5 -20 -6 -3 -9 -11 -6 -16 4 -5 2 -9 -4 -9 -9 0 -22 -27 -27 -58
-1 -7 -9 -24 -18 -37 -9 -13 -16 -31 -16 -40 0 -8 -4 -15 -9 -15 -5 0 -11 -15
-15 -32 -3 -18 -19 -60 -35 -93 -16 -33 -37 -80 -47 -105 -9 -25 -26 -64 -36
-87 -10 -23 -18 -47 -18 -52 0 -6 -5 -11 -12 -11 -6 0 -9 -3 -5 -6 3 -3 -3
-26 -14 -51 -20 -46 -26 -95 -10 -77 5 5 23 45 41 89 79 197 102 253 125 303
14 29 25 57 25 62 0 5 13 37 29 72 16 35 32 74 36 88 4 14 57 121 116 238 60
118 109 222 109 233 0 10 11 47 24 81 38 100 40 105 26 88 -9 -12 -10 -1 -5
50 11 124 18 160 27 160 6 0 7 -15 3 -37 -7 -39 -16 -158 -11 -151 12 13 57
98 53 98 -3 0 -15 -15 -27 -32 l-21 -33 6 40 c14 91 25 115 49 115 13 0 30 7
37 17 13 14 12 15 -6 6 -11 -5 -26 -8 -32 -7 -7 1 -17 2 -23 3 -5 0 -10 7 -10
15 0 7 -6 19 -14 25 -17 15 -20 4 -41 -159 -20 -160 -20 -163 -39 -239 -16
-70 -79 -204 -92 -199 -5 2 -9 -4 -10 -12 -1 -26 -16 -50 -27 -43 -5 3 -7 1
-4 -4 6 -10 -30 -53 -80 -94 -49 -40 -152 -117 -193 -143 -25 -16 -64 -42 -88
-57 -23 -16 -45 -29 -48 -29 -3 0 -18 -8 -32 -19 -74 -52 -169 -100 -254 -128
-66 -21 -204 -13 -289 18 -50 19 -70 33 -110 81 -27 32 -59 82 -71 111 -12 29
-46 98 -75 154 -86 164 -114 250 -163 493 -11 52 -29 124 -40 158 -11 35 -19
74 -19 85 1 16 2 18 6 5 2 -10 10 -15 19 -11 11 4 12 9 3 19 -9 11 -18 57 -22
112 -1 18 -8 15 -14 -8z"/>
<path d="M2403 1633 c-12 -2 -29 -15 -37 -28 -15 -23 -15 -24 1 -18 20 7 79
54 66 52 -4 -1 -18 -4 -30 -6z"/>
<path d="M1360 1567 c0 -10 9 -35 20 -57 11 -22 20 -51 20 -65 0 -33 -18 -67
-31 -60 -5 4 -8 3 -7 -2 2 -4 0 -8 -3 -8 -4 0 -15 -7 -25 -16 -25 -21 -53 -31
-67 -22 -7 4 -2 9 13 13 34 8 40 47 9 58 -21 8 -94 1 -105 -10 -8 -9 7 -36 24
-43 14 -5 15 -4 5 6 -19 19 -16 29 7 29 20 0 24 -9 21 -41 -1 -9 10 -24 24
-33 15 -10 23 -22 19 -29 -4 -7 3 -2 15 11 12 12 28 22 35 22 29 0 66 42 72
81 4 23 12 39 20 39 16 0 19 16 5 25 -5 3 -12 18 -16 33 -8 36 -55 95 -55 69z"/>
<path d="M2406 1564 c-18 -17 -19 -24 -10 -48 8 -22 30 -20 54 4 17 17 18 23
8 40 -15 24 -31 25 -52 4z"/>
<path d="M1030 1510 c5 -9 16 -23 25 -30 15 -12 16 -11 13 15 -2 21 -9 29 -25
30 -17 1 -20 -2 -13 -15z"/>
<path d="M714 1456 c8 -44 25 -91 30 -85 6 5 -22 110 -30 118 -4 3 -4 -11 0
-33z"/>
<path d="M2421 1431 c-24 -33 -29 -55 -6 -25 8 10 15 16 15 13 0 -7 -44 -116
-72 -177 -11 -24 -18 -46 -15 -48 7 -8 98 207 103 244 3 29 0 28 -25 -7z"/>
<path d="M1062 1383 c32 -36 40 -60 28 -83 -5 -10 -12 -35 -14 -55 -3 -21 -11
-42 -18 -46 -10 -7 -10 -9 0 -9 7 0 12 -12 12 -28 0 -17 9 -37 23 -49 28 -25
57 -36 57 -21 0 6 3 9 6 6 3 -3 21 -2 39 3 29 8 44 5 92 -18 l57 -28 -75 -6
c-48 -4 -79 -2 -88 5 -11 8 -13 8 -7 -1 9 -17 1 -16 -64 3 -42 12 -62 13 -95
5 -31 -8 -52 -8 -74 0 -18 6 -35 9 -38 5 -4 -3 1 -6 10 -6 9 0 22 -9 30 -20
13 -19 16 -19 50 -5 43 18 57 18 92 5 23 -9 24 -12 14 -31 -9 -17 -8 -20 3
-13 15 10 23 11 153 13 55 1 127 -2 160 -8 33 -6 79 -11 103 -11 24 0 41 -4
38 -8 -2 -4 5 -9 17 -9 17 -2 19 0 7 7 -13 9 -13 10 0 11 8 1 21 2 29 3 8 0
15 7 17 14 1 7 0 8 -3 2 -8 -17 -20 -11 -42 23 -18 28 -27 25 -22 -6 2 -9
-127 -3 -136 7 -4 3 0 6 8 6 8 0 1 7 -15 15 -15 8 -32 15 -36 15 -4 0 -39 18
-78 41 -68 40 -71 40 -101 25 -38 -20 -56 -20 -86 0 -24 15 -24 19 -19 93 4
42 10 80 15 86 20 21 9 54 -25 74 -46 29 -55 26 -24 -6z"/>
<path d="M1161 1304 c-14 -49 -14 -63 0 -44 9 13 10 13 5 0 -3 -8 -9 -23 -12
-32 -4 -10 -10 -18 -15 -18 -5 0 -9 -7 -9 -16 0 -28 34 -10 42 21 6 24 6 21 4
-12 -3 -32 -1 -43 10 -43 26 0 33 43 19 105 -18 77 -31 88 -44 39z"/>
<path d="M777 1243 c3 -21 12 -56 19 -78 l14 -40 -7 40 c-3 22 -7 54 -8 70 -3
43 -4 45 -14 45 -6 0 -7 -17 -4 -37z"/>
<path d="M1297 1260 c-6 -23 -27 -27 -27 -5 0 8 -4 15 -9 15 -10 0 -7 -32 5
-52 5 -7 3 -8 -6 -3 -10 6 -12 4 -7 -9 4 -10 7 -20 7 -22 0 -2 5 -4 10 -4 6 0
10 6 10 14 0 8 4 17 9 20 5 4 7 -3 4 -14 -3 -11 -1 -20 5 -20 13 0 23 38 11
46 -5 3 -6 16 -3 30 3 13 4 24 1 24 -2 0 -7 -9 -10 -20z"/>
<path d="M1332 1198 c-14 -14 -16 -44 -2 -53 5 -3 12 5 16 19 8 34 2 50 -14
34z"/>
<path d="M2307 1123 c-36 -81 -34 -93 4 -19 16 33 28 64 26 69 -1 5 -15 -17
-30 -50z"/>
<path d="M1357 1163 c-11 -10 -8 -25 3 -18 6 3 10 -2 10 -12 0 -13 2 -15 9 -5
6 10 10 10 21 -3 18 -21 30 -19 30 6 0 19 -2 20 -17 8 -11 -10 -14 -10 -9 -1
6 11 0 14 -20 11 -4 0 -10 4 -14 10 -3 6 -9 8 -13 4z"/>
<path d="M1446 1134 c-9 -24 -7 -31 4 -14 9 13 10 13 10 -1 0 -17 40 -59 57
-59 6 0 14 -6 16 -12 3 -8 6 -6 6 5 1 9 -3 17 -9 17 -5 0 -9 3 -9 8 4 21 -3
30 -26 36 -14 4 -25 13 -25 21 0 20 -16 19 -24 -1z"/>
<path d="M847 1093 c-12 -11 -7 -80 7 -114 15 -34 15 -33 9 26 -3 33 -6 68 -7
78 0 19 0 19 -9 10z"/>
<path d="M2261 996 c-27 -110 0 -318 54 -410 15 -26 50 -66 77 -89 49 -41 50
-43 46 -88 -7 -71 -91 -229 -204 -387 -19 -26 -4 -30 18 -4 26 31 146 226 166
272 12 25 25 63 31 85 20 75 16 88 -51 149 -34 31 -55 56 -47 56 7 0 55 -7
104 -16 84 -15 203 -66 220 -94 3 -5 37 -30 75 -56 38 -26 80 -56 92 -68 36
-34 100 -74 131 -81 22 -6 27 -4 27 12 0 12 -11 23 -32 31 -18 7 -55 33 -83
58 -56 52 -149 118 -181 128 -18 6 -66 69 -128 170 -48 77 -85 114 -123 120
-21 4 -70 18 -110 33 l-72 25 6 99 c3 55 4 99 1 99 -3 0 -11 -20 -17 -44z m79
-217 c0 -3 20 -12 45 -19 24 -7 42 -16 39 -21 -3 -5 4 -9 16 -9 21 0 75 -48
139 -122 35 -40 28 -59 -10 -29 -13 10 -28 18 -34 18 -5 0 -16 14 -24 31 -8
17 -20 33 -27 36 -8 3 -6 -8 7 -31 l20 -35 -63 7 c-83 10 -80 9 -104 22 -14 8
-25 31 -34 70 -16 68 -17 76 -13 85 4 8 43 6 43 -3z"/>
<path d="M1073 953 c9 -2 17 -12 17 -20 0 -9 3 -14 6 -10 4 3 13 -1 21 -9 18
-18 26 -13 17 10 -3 9 -12 16 -20 16 -8 0 -14 5 -14 10 0 6 -10 9 -22 9 -17
-1 -19 -2 -5 -6z"/>
<path d="M870 918 c0 -9 4 -19 9 -23 5 -3 12 -18 16 -34 3 -16 12 -32 20 -34
11 -5 11 -1 0 20 -8 15 -12 29 -10 33 2 3 -5 17 -16 30 -14 20 -19 21 -19 8z"/>
<path d="M1205 893 c-114 -5 -140 -25 -32 -26 15 0 27 -4 27 -9 0 -5 5 -6 10
-3 6 4 18 1 27 -7 14 -11 16 -10 11 8 -5 20 -3 21 28 14 20 -5 37 -3 43 3 8 8
11 8 11 -1 0 -20 17 -14 23 8 4 17 1 20 -26 18 -18 -1 -72 -4 -122 -5z"/>
<path d="M1158 796 c-18 -14 -24 -27 -10 -25 19 3 43 -2 39 -8 -3 -5 17 -6 44
-5 30 3 49 0 49 -7 0 -6 -6 -8 -14 -5 -20 8 -78 -21 -94 -47 -12 -19 -11 -19
18 3 30 21 41 23 148 21 107 -1 114 0 77 11 -27 9 -35 15 -25 19 8 4 5 4 -8 1
-15 -4 -31 1 -44 13 -12 10 -18 12 -13 4 6 -11 4 -13 -11 -7 -28 12 -128 24
-138 18 -5 -3 -7 2 -3 11 8 20 7 20 -15 3z"/>
<path d="M2206 753 c-10 -26 -27 -73 -38 -103 -11 -30 -26 -68 -33 -85 -19
-43 -64 -153 -81 -198 -8 -21 -26 -60 -39 -87 -14 -27 -25 -54 -25 -59 0 -6
-13 -40 -30 -76 -16 -36 -30 -70 -30 -76 0 -5 -7 -23 -15 -39 -15 -28 -14 -30
4 -30 19 0 30 19 36 63 3 24 72 206 84 222 13 17 127 304 160 404 34 98 39
146 7 64z"/>
<path d="M1045 288 c-11 -18 -26 -43 -34 -57 -8 -15 -20 -30 -26 -36 -22 -19
-125 -176 -125 -191 0 -2 7 -4 15 -4 8 0 22 15 31 33 20 38 56 87 101 136 l33
36 1 -30 c1 -20 6 -8 15 35 8 36 13 75 12 87 -3 21 -4 21 -23 -9z"/>
<path d="M796 148 c5 -7 2 -9 -8 -5 -10 3 -25 -5 -39 -20 -13 -15 -18 -23 -11
-19 6 4 12 3 12 -2 0 -6 -7 -12 -15 -16 -8 -3 -15 -12 -15 -21 0 -8 -4 -15
-10 -15 -5 0 -10 -7 -10 -16 0 -8 -4 -13 -8 -10 -5 3 -9 -1 -9 -9 0 -24 11
-17 31 18 11 17 38 51 62 74 33 31 39 43 28 47 -10 4 -13 2 -8 -6z"/>
<path d="M860 141 c0 -7 -4 -9 -10 -6 -5 3 -10 1 -10 -5 0 -7 -7 -9 -16 -6
-13 5 -14 4 -6 -7 12 -14 7 -27 -10 -27 -5 0 -6 5 -2 12 4 7 3 8 -5 4 -6 -4
-9 -11 -7 -15 3 -4 -11 -25 -31 -46 -23 -25 -32 -40 -24 -43 7 -2 20 6 29 19
9 13 36 45 61 72 24 26 41 50 38 54 -4 3 -7 1 -7 -6z"/>
<path d="M2953 68 c-24 -30 -43 -58 -43 -61 0 -4 10 -7 23 -7 28 1 69 63 65
98 -3 24 -6 22 -45 -30z"/>
<path d="M822 51 c-36 -45 -42 -63 -12 -36 17 16 54 75 46 75 -2 0 -17 -18
-34 -39z"/>
</g>
</svg>
